HIERARCHY
ROOT Hips
{
	OFFSET 0.000000 88.474243 0.000000
	CHANNELS 6 Xposition Yposition Zposition Zrotation Yrotation Xrotation 
	JOINT Hips_Spine
	{
		OFFSET 0.000000 0.000000 0.000000
		CHANNELS 3 Zrotation Yrotation Xrotation
		JOINT Spine
		{
			OFFSET 0.005100 8.711998 -0.691000
			CHANNELS 3 Zrotation Yrotation Xrotation
			JOINT Spine1
			{
				OFFSET -0.009200 8.660301 -1.275000
				CHANNELS 3 Zrotation Yrotation Xrotation
				JOINT Spine2
				{
					OFFSET 0.006300 9.852501 -1.857000
					CHANNELS 3 Zrotation Yrotation Xrotation
					JOINT Spine2_Neck
					{
						OFFSET 0.000000 0.000000 0.000000
						CHANNELS 3 Zrotation Yrotation Xrotation
						JOINT Neck
						{
							OFFSET 0.016300 11.420799 -0.263300
							CHANNELS 3 Zrotation Yrotation Xrotation
							End Site #name: Head
							{
								OFFSET -0.019200 9.262405 2.362500
							}
						}
					}
					JOINT Spine2_LeftShoulder
					{
						OFFSET 0.000000 0.000000 0.000000
						CHANNELS 3 Zrotation Yrotation Xrotation
						JOINT LeftShoulder
						{
							OFFSET 5.616900 6.732201 -0.345700
							CHANNELS 3 Zrotation Yrotation Xrotation
							JOINT LeftArm
							{
								OFFSET 10.664888 -0.183372 -2.440700
								CHANNELS 3 Zrotation Yrotation Xrotation
								JOINT LeftForeArm
								{
									OFFSET 27.459126 0.000000 0.000000
									CHANNELS 3 Zrotation Yrotation Xrotation
									End Site #name: LeftHand
									{
										OFFSET 21.306858 0.000000 0.000000
									}
								}
							}
						}
					}
					JOINT Spine2_RightShoulder
					{
						OFFSET 0.000000 0.000000 0.000000
						CHANNELS 3 Zrotation Yrotation Xrotation
						JOINT RightShoulder
						{
							OFFSET -5.580300 6.737503 -0.344400
							CHANNELS 3 Zrotation Yrotation Xrotation
							JOINT RightArm
							{
								OFFSET -10.679335 -0.188484 -2.383900
								CHANNELS 3 Zrotation Yrotation Xrotation
								JOINT RightForeArm
								{
									OFFSET -27.503529 0.000000 0.000000
									CHANNELS 3 Zrotation Yrotation Xrotation
									End Site #name: RightHand
									{
										OFFSET -21.306808 0.000000 0.000000
									}
								}
							}
						}
					}
				}
			}
		}
	}
	JOINT Hips_LeftUpLeg
	{
		OFFSET 0.000000 0.000000 0.000000
		CHANNELS 3 Zrotation Yrotation Xrotation
		JOINT LeftUpLeg
		{
			OFFSET 6.857700 -6.739601 0.312100
			CHANNELS 3 Zrotation Yrotation Xrotation
			JOINT LeftLeg
			{
				OFFSET -0.367590 -34.731552 -4.572400
				CHANNELS 3 Zrotation Yrotation Xrotation
				End Site #name: LeftFoot
				{
					OFFSET 0.367590 -34.656704 -6.067400
				}
			}
		}
	}
	JOINT Hips_RightUpLeg
	{
		OFFSET 0.000000 0.000000 0.000000
		CHANNELS 3 Zrotation Yrotation Xrotation
		JOINT RightUpLeg
		{
			OFFSET -6.876100 -6.733299 0.301000
			CHANNELS 3 Zrotation Yrotation Xrotation
			JOINT RightLeg
			{
				OFFSET 0.347353 -34.795158 -4.515900
				CHANNELS 3 Zrotation Yrotation Xrotation
				End Site #name: RightFoot
				{
					OFFSET -0.347353 -34.589367 -6.070300
				}
			}
		}
	}
}
MOTION
Frames: 15
Frame Time: 0.041667
-0.011431 0.093732 -1.395339 -6.406438 1.658636 -5.308237 0.000000 -0.000000 0.000000 4.490270 0.324381 22.566915 0.315203 0.275524 3.510710 0.000000 0.000000 0.000000 0.606131 0.155159 2.565906 1.333190 -1.039820 10.292489 0.524477 0.170203 2.911148 -3.592435 1.346356 -0.825501 -63.935149 -6.003999 7.415783 -0.016290 -40.827541 0.813383 0.355788 0.340111 3.466010 6.660806 -5.501896 0.289419 72.454645 15.870377 10.080391 -0.407834 67.931084 -0.157061 -0.000000 0.000000 0.000000 8.394070 8.821970 -69.378912 4.219387 -5.536714 62.461476 0.000000 0.000000 0.000000 -2.350604 -8.593919 -62.029458 0.065004 -0.752133 68.281552 
-0.011238 0.096316 -1.433402 -6.393917 1.650601 -5.306499 0.000000 -0.000000 0.000000 4.486677 0.338593 22.521944 0.323846 0.275705 3.529843 0.000000 0.000000 0.000000 0.618313 0.154561 2.590560 1.335253 -1.040949 10.264305 0.536408 0.168428 2.931829 -3.601079 1.252868 -0.813128 -63.911616 -6.075783 7.234257 -0.009852 -40.220205 0.803995 0.371159 0.338548 3.487636 6.773002 -5.491283 0.285367 72.519726 16.004065 10.455676 -0.399208 66.467528 -0.155932 -0.000000 0.000000 0.000000 8.396173 8.817486 -69.381495 4.228943 -5.534033 62.461750 0.000000 0.000000 0.000000 -2.347970 -8.596384 -62.026250 0.061877 -0.756121 68.278409 
-0.010081 0.098675 -1.470821 -6.383578 1.641241 -5.303873 0.000000 -0.000000 0.000000 4.483922 0.354660 22.481333 0.333587 0.276029 3.550275 0.000000 0.000000 0.000000 0.630906 0.154267 2.616109 1.335669 -1.039812 10.235517 0.548350 0.166255 2.953789 -3.617755 1.140431 -0.796721 -63.875616 -6.150492 7.034691 -0.003188 -39.553843 0.793339 0.388214 0.337272 3.510510 6.893983 -5.466029 0.281536 72.562968 16.156806 10.923928 -0.388294 64.627552 -0.154301 -0.000000 0.000000 0.000000 8.396252 8.816357 -69.385475 4.240342 -5.530761 62.458485 0.000000 0.000000 0.000000 -2.341688 -8.595968 -62.026327 0.063074 -0.757814 68.278643 
-0.007885 0.100823 -1.507651 -6.374766 1.632892 -5.298243 0.000000 -0.000000 0.000000 4.480228 0.372951 22.433087 0.343262 0.276697 3.570617 0.000000 0.000000 0.000000 0.643981 0.154519 2.643086 1.337405 -1.038289 10.199780 0.560819 0.165166 2.976692 -3.639342 1.017997 -0.779101 -63.846603 -6.226355 6.858598 0.003082 -38.801049 0.781953 0.405353 0.336852 3.534169 7.012258 -5.427172 0.279447 72.572928 16.358778 11.516831 -0.377008 62.700746 -0.151880 -0.000000 0.000000 0.000000 8.398014 8.816145 -69.391074 4.251358 -5.526677 62.458792 0.000000 0.000000 0.000000 -2.338470 -8.596794 -62.023771 0.058873 -0.761593 68.277245 
-0.004614 0.102785 -1.543930 -6.369290 1.628834 -5.294404 0.000000 -0.000000 0.000000 4.477208 0.392914 22.381352 0.353505 0.277706 3.592208 0.000000 0.000000 0.000000 0.657978 0.155237 2.670358 1.337397 -1.035215 10.160429 0.574125 0.163748 3.000568 -3.660164 0.896087 -0.759560 -63.808324 -6.297809 6.644338 0.009869 -37.996934 0.769716 0.423704 0.336414 3.558184 7.136797 -5.393898 0.276759 72.595327 16.565939 12.128682 -0.365797 60.715413 -0.150526 -0.000000 0.000000 0.000000 8.400933 8.815282 -69.397512 4.263565 -5.521849 62.457461 0.000000 0.000000 0.000000 -2.332780 -8.599340 -62.028600 0.058722 -0.763792 68.278361 
-0.000262 0.104575 -1.579723 -6.365382 1.625565 -5.290656 0.000000 -0.000000 0.000000 4.474485 0.415291 22.333927 0.363517 0.278882 3.614291 0.000000 0.000000 0.000000 0.671594 0.155918 2.698031 1.338128 -1.031791 10.120386 0.587904 0.163454 3.024526 -3.689115 0.768103 -0.740337 -63.768502 -6.361013 6.425010 0.016579 -37.219739 0.757749 0.441917 0.336392 3.582174 7.255123 -5.350065 0.274845 72.620890 16.783191 12.734825 -0.353469 58.700037 -0.148147 -0.000000 0.000000 0.000000 8.401898 8.818648 -69.404706 4.278098 -5.516201 62.457290 0.000000 0.000000 0.000000 -2.328425 -8.599120 -62.030635 0.057256 -0.765655 68.278413 
0.005130 0.106253 -1.615006 -6.362719 1.621866 -5.286308 0.000000 -0.000000 0.000000 4.472162 0.439058 22.286415 0.373495 0.280220 3.638550 0.000000 0.000000 0.000000 0.685092 0.157193 2.726585 1.338899 -1.027111 10.078206 0.601133 0.163255 3.049792 -3.711936 0.633757 -0.719447 -63.735390 -6.453439 6.193317 0.022547 -36.678358 0.747590 0.459673 0.336574 3.607634 7.371392 -5.301636 0.273603 72.654707 17.011685 13.340316 -0.343883 56.696888 -0.147919 -0.000000 0.000000 0.000000 8.402093 8.821196 -69.407734 4.291726 -5.509366 62.456783 0.000000 0.000000 0.000000 -2.324352 -8.597533 -62.030939 0.055925 -0.765974 68.276987 
0.011462 0.107909 -1.649849 -6.360640 1.617617 -5.279924 0.000000 -0.000000 0.000000 4.467823 0.462474 22.237666 0.388188 0.278811 3.664195 0.000000 0.000000 0.000000 0.697886 0.158600 2.756655 1.339158 -1.021190 10.036327 0.613720 0.163125 3.075217 -3.744458 0.496163 -0.698067 -63.696140 -6.520222 5.956696 0.022755 -36.483279 0.743729 0.476225 0.337317 3.633436 7.477626 -5.242099 0.274037 72.691560 17.238123 13.925796 -0.332536 54.692815 -0.146553 -0.000000 0.000000 0.000000 8.403485 8.819725 -69.416300 4.306603 -5.501339 62.460188 0.000000 0.000000 0.000000 -2.319576 -8.598181 -62.037221 0.053620 -0.768214 68.277500 
0.018837 0.109561 -1.684304 -6.360854 1.615517 -5.274628 0.000000 -0.000000 0.000000 4.462810 0.486168 22.181864 0.404543 0.276584 3.691605 0.000000 0.000000 0.000000 0.710883 0.160209 2.786405 1.338268 -1.015065 9.990767 0.626390 0.163486 3.102549 -3.773545 0.359472 -0.675761 -63.657049 -6.597932 5.722667 0.023630 -36.269086 0.738555 0.492777 0.337719 3.657778 7.573200 -5.173753 0.276944 72.723527 17.451625 14.493625 -0.326993 53.340508 -0.153996 -0.000000 0.000000 0.000000 8.406470 8.821618 -69.415490 4.323074 -5.491668 62.453476 0.000000 0.000000 0.000000 -2.316590 -8.595282 -62.033236 0.052712 -0.769488 68.273462 
0.027128 0.111248 -1.718412 -6.362285 1.614669 -5.268745 0.000000 -0.000000 0.000000 4.458106 0.511731 22.130336 0.421273 0.274256 3.718991 0.000000 0.000000 0.000000 0.723639 0.161937 2.817145 1.335501 -1.005065 9.940007 0.638880 0.164328 3.127608 -3.813223 0.219063 -0.653125 -63.623237 -6.671861 5.480644 0.024034 -36.029674 0.734463 0.509036 0.338793 3.682492 7.658396 -5.100767 0.280843 72.761023 17.654961 15.082351 -0.320854 52.031680 -0.161878 -0.000000 0.000000 0.000000 8.407526 8.824645 -69.417885 4.341316 -5.481822 62.449129 0.000000 0.000000 0.000000 -2.315216 -8.590775 -62.031419 0.048943 -0.772104 68.265464 
0.036230 0.113077 -1.752212 -6.365081 1.614611 -5.262195 0.000000 -0.000000 0.000000 4.454054 0.539010 22.077769 0.437141 0.272421 3.745126 0.000000 0.000000 0.000000 0.736456 0.164374 2.846174 1.333362 -0.991569 9.887127 0.651562 0.165076 3.154013 -3.849534 0.084184 -0.629301 -63.588005 -6.749126 5.256792 0.025521 -35.804467 0.731133 0.524996 0.340189 3.706732 7.743005 -5.029381 0.284941 72.832452 17.890202 15.684066 -0.306181 50.847916 -0.161901 -0.000000 0.000000 0.000000 8.410980 8.827943 -69.419554 4.364914 -5.467209 62.446258 0.000000 0.000000 0.000000 -2.313167 -8.589281 -62.025028 0.051033 -0.772682 68.254589 
0.046076 0.115042 -1.785760 -6.369660 1.616332 -5.253042 0.000000 -0.000000 0.000000 4.450524 0.564368 22.030799 0.453158 0.270297 3.771324 0.000000 0.000000 0.000000 0.749096 0.167164 2.875953 1.331233 -0.977060 9.833550 0.664369 0.166297 3.180319 -3.889643 -0.045785 -0.607520 -63.548440 -6.804250 5.029523 0.026048 -35.568810 0.728049 0.541320 0.342091 3.731277 7.826748 -4.955304 0.289693 72.862192 18.135972 16.231890 -0.295616 49.911278 -0.169648 -0.000000 0.000000 0.000000 8.412132 8.830795 -69.424369 4.390646 -5.450665 62.446217 0.000000 0.000000 0.000000 -2.311517 -8.586397 -62.015021 0.047288 -0.774665 68.243833 
0.056582 0.117211 -1.819179 -6.376407 1.618615 -5.245177 0.000000 -0.000000 0.000000 4.446847 0.594460 21.977752 0.468860 0.268435 3.796582 0.000000 0.000000 0.000000 0.762275 0.170223 2.905646 1.329837 -0.961382 9.782834 0.677664 0.168624 3.205373 -3.925579 -0.168740 -0.585899 -63.510533 -6.867095 4.802692 0.027986 -35.336722 0.724652 0.558187 0.344043 3.755394 7.917648 -4.880698 0.293057 72.815621 18.328766 16.640369 -0.286113 49.046580 -0.177585 -0.000000 0.000000 0.000000 8.415462 8.837323 -69.434305 4.420633 -5.429002 62.449452 0.000000 0.000000 0.000000 -2.310159 -8.585823 -62.019002 0.047903 -0.775787 68.233741 
0.067743 0.119659 -1.852457 -6.382419 1.621838 -5.235324 0.000000 -0.000000 0.000000 4.442201 0.622681 21.925066 0.484858 0.266336 3.821271 0.000000 0.000000 0.000000 0.775485 0.173370 2.933490 1.326266 -0.944376 9.733516 0.690237 0.170414 3.230947 -3.967332 -0.291675 -0.562522 -63.468398 -6.935612 4.605658 0.029035 -35.121236 0.722834 0.575013 0.346491 3.777721 8.004191 -4.805215 0.297234 72.788032 18.474183 17.106654 -0.275478 48.148164 -0.185882 -0.000000 0.000000 0.000000 8.416915 8.839018 -69.444033 4.451077 -5.406322 62.456556 0.000000 0.000000 0.000000 -2.307585 -8.582408 -62.019937 0.045949 -0.776883 68.225306 
0.079587 0.122481 -1.885705 -6.390254 1.623626 -5.226357 0.000000 -0.000000 0.000000 4.435481 0.653059 21.860351 0.500551 0.263762 3.842609 0.000000 0.000000 0.000000 0.788321 0.176717 2.957723 1.324320 -0.924569 9.684001 0.703133 0.173511 3.254159 -4.010415 -0.413049 -0.540503 -63.439182 -6.995870 4.442414 0.029946 -34.935423 0.721748 0.591990 0.348838 3.796742 8.086199 -4.728229 0.301555 72.775682 18.616489 17.568565 -0.263645 47.175892 -0.193336 -0.000000 0.000000 0.000000 8.419053 8.843053 -69.456731 4.483870 -5.382545 62.471042 0.000000 0.000000 0.000000 -2.306459 -8.576602 -62.009213 0.047719 -0.778864 68.207448 
